Coordinates
version=1
nRows=4
nColumns=63
inDegrees=yes

Units are S.I. units (second, meters, Newtons, ...)
If the header above contains a line with 'inDegrees', this indicates whether rotational values are in degrees (yes) or radians (no).

endheader
time	pelvis_tilt	pelvis_list	pelvis_rotation	pelvis_tx	pelvis_ty	pelvis_tz	hip_flexion_r	hip_adduction_r	hip_rotation_r	knee_angle_r	knee_angle_r_beta	ankle_angle_r	subtalar_angle_r	mtp_angle_r	hip_flexion_l	hip_adduction_l	hip_rotation_l	knee_angle_l	knee_angle_l_beta	ankle_angle_l	subtalar_angle_l	mtp_angle_l	L5_S1_Flex_Ext	L5_S1_Lat_Bending	L5_S1_axial_rotation	L4_L5_Flex_Ext	L4_L5_Lat_Bending	L4_L5_axial_rotation	L3_L4_Flex_Ext	L3_L4_Lat_Bending	L3_L4_axial_rotation	L2_L3_Flex_Ext	L2_L3_Lat_Bending	L2_L3_axial_rotation	L1_L2_Flex_Ext	L1_L2_Lat_Bending	L1_L2_axial_rotation	L1_T12_Flex_Ext	L1_T12_Lat_Bending	L1_T12_axial_rotation	Abs_r3	Abs_r2	Abs_r1	Abs_t1	Abs_t2	neck_flexion	neck_bending	neck_rotation	arm_flex_r	arm_add_r	arm_rot_r	elbow_flex_r	pro_sup_r	wrist_flex_r	wrist_dev_r	arm_flex_l	arm_add_l	arm_rot_l	elbow_flex_l	pro_sup_l	wrist_flex_l	wrist_dev_l
      2.13559322	    -11.80062766	    -17.29807281	     77.36501427	      0.34944660	      0.85211997	      0.72891623	     14.37775848	     -5.33086074	      1.62563631	      5.77792879	      0.10084388	     28.11917515	     14.37035076	      0.00000000	     12.07168918	      6.54968117	     -1.78081075	      0.48690001	      0.00849801	     20.40136443	    -12.50196357	      0.00000000	      0.05343093	     -0.54082173	     -1.14815471	      0.09922657	     -0.71929290	     -1.21991438	      0.08778167	     -1.31495396	     -1.21991438	      0.06106621	     -1.31495396	     -1.00463537	      0.04961596	     -1.10284368	     -0.93287570	      0.03053043	     -0.83773286	     -0.86111603	      0.38165177	     -6.11788361	     -6.38569203	      0.00000000	      0.00000000	     28.14363455	     -7.55852918	    -29.75416757	     69.77605091	    -49.43584694	     -7.13776634	    132.59936055	     88.57495950	      0.58460565	    -17.01530950	     -0.47652345	    -18.65666774	    114.23578853	      2.98357028	      8.23114818	     -8.87922757	     -9.74381277
      2.15254237	    -11.93644024	    -16.97376226	     76.55893474	      0.35132742	      0.85249455	      0.72825319	     14.25698150	     -5.30880481	      2.07240985	      5.92701655	      0.10344595	     28.12522989	     14.72522089	      0.00000000	     11.66471744	      6.56372132	     -2.51405889	      0.47000583	      0.00820315	     20.11436332	    -12.97227301	      0.00000000	      0.08071322	     -0.56953629	     -0.96484485	      0.14989251	     -0.75748326	     -1.02514766	      0.13260374	     -1.38477053	     -1.02514766	      0.09224713	     -1.38477053	     -0.84423925	      0.07495029	     -1.16139839	     -0.78393644	      0.04611953	     -0.88221171	     -0.72363364	      0.57652642	     -6.44270837	     -5.36617761	      0.00000000	      0.00000000	     28.15788258	     -7.23113110	    -29.98688160	     68.91852420	    -49.06079242	     -7.73399718	    132.32579884	     88.31873319	      0.09406003	    -15.41539037	     -0.36333138	    -18.69654926	    117.71608264	      2.60621385	      9.81717907	     -9.80664561	     -9.46982403
      2.16949153	    -11.92289494	    -16.55494542	     76.02699620	      0.35263895	      0.85307094	      0.72711589	     13.83355742	     -5.23844455	      2.46392753	      5.85714045	      0.10222639	     28.06153000	     14.83032189	      0.00000000	     11.10452765	      6.53124513	     -2.99636474	      0.44290976	      0.00773023	     19.88004469	    -13.31301264	      0.00000000	      0.09021624	     -0.58240070	     -0.77032029	      0.16754059	     -0.77459293	     -0.81846531	      0.14821627	     -1.41604906	     -0.81846531	      0.10310815	     -1.41604906	     -0.67403026	      0.08377480	     -1.18763151	     -0.62588524	      0.05154956	     -0.90213869	     -0.57774022	      0.64440561	     -6.58823321	     -4.28429038	      0.00000000	      0.00000000	     28.16609463	     -7.42807421	    -31.04488664	     67.93418792	    -48.97261514	     -8.52445544	    131.86066487	     87.93544924	      0.17273074	    -14.09012941	     -0.05466254	    -18.63216336	    121.78169283	      2.27718062	     12.35975225	    -11.06060297	     -8.57116632
      2.18644068	    -11.93536011	    -16.15240429	     75.32825561	      0.35390871	      0.85367715	      0.72567669	     13.42442440	     -5.19040440	      3.02567192	      5.75442284	      0.10043363	     28.01184603	     14.99553847	      0.00000000	     10.55679238	      6.51232643	     -3.66154847	      0.41663213	      0.00727160	     19.69089070	    -13.48230860	      0.00000000	      0.10991057	     -0.60217062	     -0.52839291	      0.20411492	     -0.80088693	     -0.56141747	      0.18057208	     -1.46411765	     -0.56141747	      0.12561679	     -1.46411765	     -0.46234380	      0.10206296	     -1.22794633	     -0.42931924	      0.06280290	     -0.93276229	     -0.39629468	      0.78508021	     -6.81187452	     -2.93876285	      0.00000000	      0.00000000	     28.17486459	     -7.40278479	    -32.26405324	     66.48690019	    -48.86637407	     -9.68815394	    131.30375259	     87.57801982	      0.35545241	    -12.96235044	      0.16134231	    -18.59473247	    122.60631279	      2.24837329	     14.35899484	    -11.27354254	     -8.36623607
